<mxfile host="Electron" modified="2023-08-11T09:25:51.497Z" agent="Mozilla/5.0 (Macintosh; Intel Mac OS X 10_15_7) AppleWebKit/537.36 (KHTML, like Gecko) draw.io/21.6.8 Chrome/114.0.5735.289 Electron/25.5.0 Safari/537.36" etag="5oLDqBD1730cqksA5Bnl" version="21.6.8" type="device">
  <diagram name="Page-1" id="l_U9TE8VM8Wb_cqC_3wU">
    <mxGraphModel dx="1414" dy="832" grid="1" gridSize="10" guides="1" tooltips="1" connect="1" arrows="1" fold="1" page="1" pageScale="1" pageWidth="1169" pageHeight="827" math="0" shadow="0">
      <root>
        <mxCell id="0" />
        <mxCell id="1" parent="0" />
        <mxCell id="bcFj_FvfjHGWvFLV_pOK-1" value="" style="rounded=1;whiteSpace=wrap;html=1;" parent="1" vertex="1">
          <mxGeometry x="10" y="150" width="530" height="370" as="geometry" />
        </mxCell>
        <mxCell id="bcFj_FvfjHGWvFLV_pOK-2" value="&lt;font style=&quot;font-size: 15px;&quot;&gt;&lt;b&gt;Data steward&lt;/b&gt;&lt;/font&gt;" style="text;html=1;strokeColor=none;fillColor=none;align=center;verticalAlign=middle;whiteSpace=wrap;rounded=0;" parent="1" vertex="1">
          <mxGeometry x="30" y="160" width="130" height="30" as="geometry" />
        </mxCell>
        <mxCell id="lOHj5W-wprSBAm-TKtK9-41" style="rounded=0;orthogonalLoop=1;jettySize=auto;html=1;entryX=0.426;entryY=1.009;entryDx=0;entryDy=0;fillColor=#dae8fc;strokeColor=#6c8ebf;strokeWidth=2;entryPerimeter=0;exitX=0.208;exitY=0.125;exitDx=0;exitDy=0;exitPerimeter=0;" parent="1" source="bcFj_FvfjHGWvFLV_pOK-3" target="bcFj_FvfjHGWvFLV_pOK-15" edge="1">
          <mxGeometry relative="1" as="geometry" />
        </mxCell>
        <mxCell id="lOHj5W-wprSBAm-TKtK9-46" style="edgeStyle=orthogonalEdgeStyle;rounded=0;orthogonalLoop=1;jettySize=auto;html=1;strokeWidth=2;fillColor=#f8cecc;strokeColor=#b85450;" parent="1" source="bcFj_FvfjHGWvFLV_pOK-3" target="lOHj5W-wprSBAm-TKtK9-24" edge="1">
          <mxGeometry relative="1" as="geometry">
            <Array as="points">
              <mxPoint x="560" y="530" />
              <mxPoint x="560" y="530" />
            </Array>
          </mxGeometry>
        </mxCell>
        <mxCell id="bcFj_FvfjHGWvFLV_pOK-3" value="&lt;b&gt;&lt;font style=&quot;font-size: 16px;&quot;&gt;Agent&lt;/font&gt;&lt;/b&gt;" style="ellipse;whiteSpace=wrap;html=1;" parent="1" vertex="1">
          <mxGeometry x="215" y="480" width="120" height="80" as="geometry" />
        </mxCell>
        <mxCell id="bcFj_FvfjHGWvFLV_pOK-10" style="rounded=0;orthogonalLoop=1;jettySize=auto;html=1;entryX=0.5;entryY=1;entryDx=0;entryDy=0;startArrow=none;startFill=0;fillColor=#fff2cc;strokeColor=#d6b656;strokeWidth=2;" parent="1" target="bcFj_FvfjHGWvFLV_pOK-3" edge="1">
          <mxGeometry relative="1" as="geometry">
            <mxPoint x="275" y="640" as="sourcePoint" />
          </mxGeometry>
        </mxCell>
        <mxCell id="nA5FP-IU7BYSisTS1pRg-1" value="1: Composition request" style="text;html=1;strokeColor=#d6b656;fillColor=#fff2cc;align=center;verticalAlign=middle;whiteSpace=wrap;rounded=0;fontSize=15;" parent="1" vertex="1">
          <mxGeometry x="280" y="600" width="180" height="30" as="geometry" />
        </mxCell>
        <mxCell id="lOHj5W-wprSBAm-TKtK9-22" value="" style="rounded=1;whiteSpace=wrap;html=1;" parent="1" vertex="1">
          <mxGeometry x="584" y="150" width="530" height="370" as="geometry" />
        </mxCell>
        <mxCell id="lOHj5W-wprSBAm-TKtK9-23" value="&lt;font style=&quot;font-size: 15px;&quot;&gt;&lt;b&gt;Trusted third party&lt;/b&gt;&lt;/font&gt;" style="text;html=1;strokeColor=none;fillColor=none;align=center;verticalAlign=middle;whiteSpace=wrap;rounded=0;" parent="1" vertex="1">
          <mxGeometry x="604" y="160" width="146" height="30" as="geometry" />
        </mxCell>
        <mxCell id="lOHj5W-wprSBAm-TKtK9-42" style="edgeStyle=orthogonalEdgeStyle;rounded=0;orthogonalLoop=1;jettySize=auto;html=1;fillColor=#dae8fc;strokeColor=#6c8ebf;strokeWidth=2;" parent="1" source="lOHj5W-wprSBAm-TKtK9-24" target="lOHj5W-wprSBAm-TKtK9-28" edge="1">
          <mxGeometry relative="1" as="geometry" />
        </mxCell>
        <mxCell id="lOHj5W-wprSBAm-TKtK9-43" style="edgeStyle=orthogonalEdgeStyle;rounded=0;orthogonalLoop=1;jettySize=auto;html=1;entryX=1;entryY=1;entryDx=0;entryDy=0;strokeWidth=2;fillColor=#dae8fc;strokeColor=#6c8ebf;" parent="1" source="lOHj5W-wprSBAm-TKtK9-24" target="bcFj_FvfjHGWvFLV_pOK-3" edge="1">
          <mxGeometry relative="1" as="geometry">
            <Array as="points">
              <mxPoint x="670" y="548" />
              <mxPoint x="670" y="548" />
            </Array>
          </mxGeometry>
        </mxCell>
        <mxCell id="lOHj5W-wprSBAm-TKtK9-47" style="rounded=0;orthogonalLoop=1;jettySize=auto;html=1;exitX=0.303;exitY=0.063;exitDx=0;exitDy=0;fillColor=#f8cecc;strokeColor=#b85450;strokeWidth=2;exitPerimeter=0;" parent="1" source="lOHj5W-wprSBAm-TKtK9-24" edge="1">
          <mxGeometry relative="1" as="geometry">
            <mxPoint x="825" y="410" as="targetPoint" />
          </mxGeometry>
        </mxCell>
        <mxCell id="lOHj5W-wprSBAm-TKtK9-24" value="&lt;b&gt;&lt;font style=&quot;font-size: 16px;&quot;&gt;Agent&lt;/font&gt;&lt;/b&gt;" style="ellipse;whiteSpace=wrap;html=1;" parent="1" vertex="1">
          <mxGeometry x="789" y="480" width="120" height="80" as="geometry" />
        </mxCell>
        <mxCell id="lOHj5W-wprSBAm-TKtK9-25" style="rounded=0;orthogonalLoop=1;jettySize=auto;html=1;entryX=0.5;entryY=1;entryDx=0;entryDy=0;startArrow=none;startFill=0;fillColor=#fff2cc;strokeColor=#d6b656;strokeWidth=2;" parent="1" target="lOHj5W-wprSBAm-TKtK9-24" edge="1">
          <mxGeometry relative="1" as="geometry">
            <mxPoint x="849" y="640" as="sourcePoint" />
          </mxGeometry>
        </mxCell>
        <mxCell id="lOHj5W-wprSBAm-TKtK9-26" value="1: Composition request" style="text;html=1;strokeColor=#d6b656;fillColor=#fff2cc;align=center;verticalAlign=middle;whiteSpace=wrap;rounded=0;fontSize=15;" parent="1" vertex="1">
          <mxGeometry x="854" y="600" width="180" height="30" as="geometry" />
        </mxCell>
        <mxCell id="lOHj5W-wprSBAm-TKtK9-27" value="" style="group" parent="1" vertex="1" connectable="0">
          <mxGeometry x="604" y="207" width="490" height="200" as="geometry" />
        </mxCell>
        <mxCell id="lOHj5W-wprSBAm-TKtK9-28" value="" style="rounded=1;whiteSpace=wrap;html=1;dashed=1;dashPattern=12 12;fillColor=#dae8fc;strokeColor=#6c8ebf;" parent="lOHj5W-wprSBAm-TKtK9-27" vertex="1">
          <mxGeometry width="490" height="200" as="geometry" />
        </mxCell>
        <mxCell id="lOHj5W-wprSBAm-TKtK9-29" value="&lt;b&gt;&lt;font style=&quot;font-size: 16px;&quot;&gt;Job&lt;/font&gt;&lt;/b&gt;" style="sketch=0;html=1;dashed=0;whitespace=wrap;fillColor=#2875E2;strokeColor=#ffffff;points=[[0.005,0.63,0],[0.1,0.2,0],[0.9,0.2,0],[0.5,0,0],[0.995,0.63,0],[0.72,0.99,0],[0.5,1,0],[0.28,0.99,0]];verticalLabelPosition=bottom;align=center;verticalAlign=top;shape=mxgraph.kubernetes.icon;prIcon=job" parent="lOHj5W-wprSBAm-TKtK9-27" vertex="1">
          <mxGeometry x="10" y="6" width="50" height="48" as="geometry" />
        </mxCell>
        <mxCell id="lOHj5W-wprSBAm-TKtK9-30" value="Service 1" style="rounded=0;whiteSpace=wrap;html=1;fillColor=#dae8fc;strokeColor=#6c8ebf;" parent="lOHj5W-wprSBAm-TKtK9-27" vertex="1">
          <mxGeometry x="10" y="86" width="120" height="60" as="geometry" />
        </mxCell>
        <mxCell id="lOHj5W-wprSBAm-TKtK9-31" value="Service 2" style="rounded=0;whiteSpace=wrap;html=1;fillColor=#dae8fc;strokeColor=#6c8ebf;" parent="lOHj5W-wprSBAm-TKtK9-27" vertex="1">
          <mxGeometry x="185" y="86" width="120" height="60" as="geometry" />
        </mxCell>
        <mxCell id="lOHj5W-wprSBAm-TKtK9-32" value="Service 3" style="rounded=0;whiteSpace=wrap;html=1;fillColor=#dae8fc;strokeColor=#6c8ebf;" parent="lOHj5W-wprSBAm-TKtK9-27" vertex="1">
          <mxGeometry x="360" y="86" width="120" height="60" as="geometry" />
        </mxCell>
        <mxCell id="lOHj5W-wprSBAm-TKtK9-33" style="edgeStyle=orthogonalEdgeStyle;rounded=0;orthogonalLoop=1;jettySize=auto;html=1;entryX=0;entryY=0.5;entryDx=0;entryDy=0;strokeWidth=2;" parent="lOHj5W-wprSBAm-TKtK9-27" source="lOHj5W-wprSBAm-TKtK9-30" target="lOHj5W-wprSBAm-TKtK9-31" edge="1">
          <mxGeometry relative="1" as="geometry" />
        </mxCell>
        <mxCell id="lOHj5W-wprSBAm-TKtK9-34" value="Data" style="edgeLabel;html=1;align=center;verticalAlign=middle;resizable=0;points=[];fontSize=13;" parent="lOHj5W-wprSBAm-TKtK9-33" vertex="1" connectable="0">
          <mxGeometry x="0.0263" y="-1" relative="1" as="geometry">
            <mxPoint x="-4" y="7" as="offset" />
          </mxGeometry>
        </mxCell>
        <mxCell id="lOHj5W-wprSBAm-TKtK9-35" style="edgeStyle=orthogonalEdgeStyle;rounded=0;orthogonalLoop=1;jettySize=auto;html=1;entryX=0;entryY=0.5;entryDx=0;entryDy=0;strokeWidth=2;" parent="lOHj5W-wprSBAm-TKtK9-27" source="lOHj5W-wprSBAm-TKtK9-31" target="lOHj5W-wprSBAm-TKtK9-32" edge="1">
          <mxGeometry relative="1" as="geometry" />
        </mxCell>
        <mxCell id="lOHj5W-wprSBAm-TKtK9-36" value="Data" style="edgeLabel;html=1;align=center;verticalAlign=middle;resizable=0;points=[];fontSize=13;" parent="lOHj5W-wprSBAm-TKtK9-35" vertex="1" connectable="0">
          <mxGeometry x="0.0465" y="-1" relative="1" as="geometry">
            <mxPoint x="-5" y="7" as="offset" />
          </mxGeometry>
        </mxCell>
        <mxCell id="lOHj5W-wprSBAm-TKtK9-37" value="" style="endArrow=classic;html=1;rounded=0;fillColor=#dae8fc;strokeColor=#6c8ebf;strokeWidth=2;entryX=0.5;entryY=1;entryDx=0;entryDy=0;" parent="1" edge="1">
          <mxGeometry width="50" height="50" relative="1" as="geometry">
            <mxPoint x="724" y="634" as="sourcePoint" />
            <mxPoint x="813" y="554" as="targetPoint" />
          </mxGeometry>
        </mxCell>
        <mxCell id="lOHj5W-wprSBAm-TKtK9-38" value="2: Data request" style="text;html=1;strokeColor=#6c8ebf;fillColor=#dae8fc;align=center;verticalAlign=middle;whiteSpace=wrap;rounded=0;fontSize=15;" parent="1" vertex="1">
          <mxGeometry x="630" y="580" width="115" height="30" as="geometry" />
        </mxCell>
        <mxCell id="lOHj5W-wprSBAm-TKtK9-44" style="edgeStyle=orthogonalEdgeStyle;rounded=0;orthogonalLoop=1;jettySize=auto;html=1;fillColor=#f8cecc;strokeColor=#b85450;strokeWidth=2;" parent="1" source="bcFj_FvfjHGWvFLV_pOK-15" target="bcFj_FvfjHGWvFLV_pOK-3" edge="1">
          <mxGeometry relative="1" as="geometry">
            <Array as="points">
              <mxPoint x="310" y="450" />
              <mxPoint x="310" y="450" />
            </Array>
          </mxGeometry>
        </mxCell>
        <mxCell id="bcFj_FvfjHGWvFLV_pOK-15" value="" style="rounded=1;whiteSpace=wrap;html=1;dashed=1;dashPattern=12 12;fillColor=#dae8fc;strokeColor=#6c8ebf;" parent="1" vertex="1">
          <mxGeometry x="30" y="207" width="490" height="200" as="geometry" />
        </mxCell>
        <mxCell id="bcFj_FvfjHGWvFLV_pOK-14" value="&lt;b&gt;&lt;font style=&quot;font-size: 16px;&quot;&gt;Job&lt;/font&gt;&lt;/b&gt;" style="sketch=0;html=1;dashed=0;whitespace=wrap;fillColor=#2875E2;strokeColor=#ffffff;points=[[0.005,0.63,0],[0.1,0.2,0],[0.9,0.2,0],[0.5,0,0],[0.995,0.63,0],[0.72,0.99,0],[0.5,1,0],[0.28,0.99,0]];verticalLabelPosition=bottom;align=center;verticalAlign=top;shape=mxgraph.kubernetes.icon;prIcon=job" parent="1" vertex="1">
          <mxGeometry x="40" y="213" width="50" height="48" as="geometry" />
        </mxCell>
        <mxCell id="bcFj_FvfjHGWvFLV_pOK-16" value="Service 1" style="rounded=0;whiteSpace=wrap;html=1;fillColor=#dae8fc;strokeColor=#6c8ebf;" parent="1" vertex="1">
          <mxGeometry x="40" y="293" width="120" height="60" as="geometry" />
        </mxCell>
        <mxCell id="bcFj_FvfjHGWvFLV_pOK-17" value="Service 2" style="rounded=0;whiteSpace=wrap;html=1;fillColor=#dae8fc;strokeColor=#6c8ebf;" parent="1" vertex="1">
          <mxGeometry x="215" y="293" width="120" height="60" as="geometry" />
        </mxCell>
        <mxCell id="bcFj_FvfjHGWvFLV_pOK-18" value="Service 3" style="rounded=0;whiteSpace=wrap;html=1;fillColor=#dae8fc;strokeColor=#6c8ebf;" parent="1" vertex="1">
          <mxGeometry x="390" y="293" width="120" height="60" as="geometry" />
        </mxCell>
        <mxCell id="bcFj_FvfjHGWvFLV_pOK-19" style="edgeStyle=orthogonalEdgeStyle;rounded=0;orthogonalLoop=1;jettySize=auto;html=1;entryX=0;entryY=0.5;entryDx=0;entryDy=0;strokeWidth=2;" parent="1" source="bcFj_FvfjHGWvFLV_pOK-16" target="bcFj_FvfjHGWvFLV_pOK-17" edge="1">
          <mxGeometry relative="1" as="geometry" />
        </mxCell>
        <mxCell id="bcFj_FvfjHGWvFLV_pOK-22" value="Data" style="edgeLabel;html=1;align=center;verticalAlign=middle;resizable=0;points=[];fontSize=13;" parent="bcFj_FvfjHGWvFLV_pOK-19" vertex="1" connectable="0">
          <mxGeometry x="0.0263" y="-1" relative="1" as="geometry">
            <mxPoint x="-4" y="7" as="offset" />
          </mxGeometry>
        </mxCell>
        <mxCell id="bcFj_FvfjHGWvFLV_pOK-20" style="edgeStyle=orthogonalEdgeStyle;rounded=0;orthogonalLoop=1;jettySize=auto;html=1;entryX=0;entryY=0.5;entryDx=0;entryDy=0;strokeWidth=2;" parent="1" source="bcFj_FvfjHGWvFLV_pOK-17" target="bcFj_FvfjHGWvFLV_pOK-18" edge="1">
          <mxGeometry relative="1" as="geometry" />
        </mxCell>
        <mxCell id="bcFj_FvfjHGWvFLV_pOK-21" value="Data" style="edgeLabel;html=1;align=center;verticalAlign=middle;resizable=0;points=[];fontSize=13;" parent="bcFj_FvfjHGWvFLV_pOK-20" vertex="1" connectable="0">
          <mxGeometry x="0.0465" y="-1" relative="1" as="geometry">
            <mxPoint x="-5" y="7" as="offset" />
          </mxGeometry>
        </mxCell>
        <mxCell id="lOHj5W-wprSBAm-TKtK9-45" value="3: Result" style="text;html=1;strokeColor=#b85450;fillColor=#f8cecc;align=center;verticalAlign=middle;whiteSpace=wrap;rounded=0;fontSize=15;" parent="1" vertex="1">
          <mxGeometry x="320" y="440" width="70" height="30" as="geometry" />
        </mxCell>
        <mxCell id="lOHj5W-wprSBAm-TKtK9-48" style="edgeStyle=orthogonalEdgeStyle;rounded=0;orthogonalLoop=1;jettySize=auto;html=1;entryX=0.779;entryY=0.111;entryDx=0;entryDy=0;entryPerimeter=0;fillColor=#d5e8d4;strokeColor=#82b366;strokeWidth=2;" parent="1" source="lOHj5W-wprSBAm-TKtK9-28" target="lOHj5W-wprSBAm-TKtK9-24" edge="1">
          <mxGeometry relative="1" as="geometry">
            <Array as="points">
              <mxPoint x="882" y="430" />
              <mxPoint x="882" y="430" />
            </Array>
          </mxGeometry>
        </mxCell>
        <mxCell id="lOHj5W-wprSBAm-TKtK9-50" value="" style="endArrow=none;html=1;rounded=0;fillColor=#d5e8d4;strokeColor=#82b366;strokeWidth=2;entryX=0.5;entryY=1;entryDx=0;entryDy=0;startArrow=classic;startFill=1;endFill=0;" parent="1" edge="1">
          <mxGeometry width="50" height="50" relative="1" as="geometry">
            <mxPoint x="738" y="640" as="sourcePoint" />
            <mxPoint x="827" y="560" as="targetPoint" />
          </mxGeometry>
        </mxCell>
      </root>
    </mxGraphModel>
  </diagram>
</mxfile>
